<svg width="173" height="56" viewBox="0 0 173 56" fill="none" xmlns="http://www.w3.org/2000/svg">
<path d="M38.368 29.84L50.144 14.544H51.392C52.0107 15.056 52.32 15.7067 52.32 16.496C52.32 16.88 52.2347 17.2533 52.064 17.616C51.9147 17.9573 51.6907 18.3093 51.392 18.672L39.68 34H38.272C38.016 33.7867 37.8027 33.52 37.632 33.2C37.4827 32.8587 37.408 32.4853 37.408 32.08C37.408 31.696 37.4933 31.3227 37.664 30.96C37.856 30.576 38.0907 30.2027 38.368 29.84ZM38.912 34L40.16 30.832H52.128C52.2347 31.0027 52.3307 31.2267 52.416 31.504C52.5013 31.76 52.544 32.048 52.544 32.368C52.544 32.9013 52.416 33.3067 52.16 33.584C51.9253 33.8613 51.5947 34 51.168 34H38.912ZM50.624 14.544L49.664 17.68H38.08C37.9733 17.5093 37.8667 17.296 37.76 17.04C37.6747 16.784 37.632 16.496 37.632 16.176C37.632 15.6213 37.76 15.216 38.016 14.96C38.272 14.6827 38.624 14.544 39.072 14.544H50.624ZM61.5923 31.632C62.2749 31.632 62.8723 31.568 63.3843 31.44C63.9176 31.2907 64.3123 31.1307 64.5683 30.96V27.152L61.2403 27.504C60.3443 27.568 59.6616 27.7707 59.1923 28.112C58.7229 28.432 58.4883 28.9013 58.4883 29.52C58.4883 30.16 58.7336 30.672 59.2243 31.056C59.7363 31.44 60.5256 31.632 61.5923 31.632ZM61.4643 18.48C63.5123 18.48 65.1443 18.9173 66.3603 19.792C67.5763 20.6667 68.1843 22.0427 68.1843 23.92V31.344C68.1843 31.8347 68.0669 32.2293 67.8323 32.528C67.5976 32.8053 67.2883 33.0613 66.9043 33.296C66.3069 33.6373 65.5603 33.9147 64.6643 34.128C63.7683 34.3627 62.7443 34.48 61.5923 34.48C59.5016 34.48 57.8483 34.0747 56.6323 33.264C55.4376 32.432 54.8403 31.216 54.8403 29.616C54.8403 28.208 55.2883 27.1307 56.1843 26.384C57.1016 25.616 58.4243 25.1467 60.1523 24.976L64.5363 24.528V23.888C64.5363 23.0133 64.2376 22.3733 63.6403 21.968C63.0429 21.5627 62.2109 21.36 61.1443 21.36C60.3123 21.36 59.4909 21.4773 58.6803 21.712C57.8909 21.9253 57.1869 22.1813 56.5683 22.48C56.3549 22.3093 56.1629 22.0853 55.9923 21.808C55.8429 21.5307 55.7682 21.2427 55.7682 20.944C55.7682 20.1973 56.1736 19.6427 56.9843 19.28C57.5816 19.024 58.2749 18.832 59.0643 18.704C59.8536 18.5547 60.6536 18.48 61.4643 18.48ZM72.1075 14.384C72.1075 13.7867 72.3102 13.2853 72.7155 12.88C73.1422 12.4747 73.6648 12.272 74.2835 12.272C74.9448 12.272 75.4675 12.4747 75.8515 12.88C76.2568 13.2853 76.4595 13.7867 76.4595 14.384C76.4595 14.96 76.2568 15.4613 75.8515 15.888C75.4675 16.2933 74.9448 16.496 74.2835 16.496C73.6648 16.496 73.1422 16.2933 72.7155 15.888C72.3102 15.4613 72.1075 14.96 72.1075 14.384ZM72.4275 25.552H76.1395V33.936C75.9902 34 75.7662 34.0533 75.4675 34.096C75.1688 34.16 74.8382 34.192 74.4755 34.192C73.7928 34.192 73.2808 34.064 72.9395 33.808C72.5982 33.552 72.4275 33.1147 72.4275 32.496V25.552ZM76.1395 27.44H72.4275V19.024C72.5982 18.9813 72.8328 18.9387 73.1315 18.896C73.4515 18.832 73.7928 18.8 74.1555 18.8C74.8382 18.8 75.3395 18.928 75.6595 19.184C75.9795 19.4187 76.1395 19.8667 76.1395 20.528V27.44ZM94.3103 24.144V27.28H90.5983V24.272C90.5983 23.2907 90.3103 22.576 89.7343 22.128C89.1796 21.6587 88.4436 21.424 87.5263 21.424C86.8436 21.424 86.2249 21.5093 85.6703 21.68C85.1156 21.8507 84.6356 22.0533 84.2303 22.288V27.28H80.5182V22.096C80.5182 21.584 80.6143 21.168 80.8063 20.848C81.0196 20.528 81.3503 20.2293 81.7983 19.952C82.4169 19.5467 83.2169 19.2053 84.1983 18.928C85.2009 18.6293 86.3103 18.48 87.5263 18.48C89.6596 18.48 91.3236 18.96 92.5183 19.92C93.7129 20.8587 94.3103 22.2667 94.3103 24.144ZM80.5182 25.68H84.2303V33.936C84.0596 34 83.8249 34.0533 83.5263 34.096C83.2276 34.16 82.8969 34.192 82.5343 34.192C81.8516 34.192 81.3396 34.064 80.9983 33.808C80.6782 33.552 80.5182 33.1147 80.5182 32.496V25.68ZM90.5983 25.68H94.3103V33.936C94.1609 34 93.9263 34.0533 93.6063 34.096C93.3076 34.16 92.9769 34.192 92.6143 34.192C91.9316 34.192 91.4196 34.064 91.0783 33.808C90.7583 33.552 90.5983 33.1147 90.5983 32.496V25.68Z" fill="#EEEEEE"/>
<path d="M104.441 31.344C105.7 31.344 106.639 31.088 107.257 30.576C107.876 30.0427 108.185 29.3813 108.185 28.592C108.185 27.9093 107.94 27.344 107.449 26.896C106.98 26.448 106.255 26.0747 105.273 25.776L103.065 25.104C102.041 24.7627 101.135 24.368 100.345 23.92C99.5773 23.472 98.9799 22.896 98.5533 22.192C98.1266 21.488 97.9133 20.6347 97.9133 19.632C97.9133 17.904 98.5533 16.5493 99.8333 15.568C101.113 14.5653 102.852 14.064 105.049 14.064C106.244 14.064 107.3 14.192 108.217 14.448C109.156 14.6827 109.892 15.0133 110.425 15.44C110.959 15.8667 111.225 16.3573 111.225 16.912C111.225 17.2747 111.129 17.6053 110.937 17.904C110.745 18.2027 110.5 18.448 110.201 18.64C109.711 18.256 109.028 17.9253 108.153 17.648C107.3 17.3707 106.361 17.232 105.337 17.232C104.228 17.232 103.364 17.456 102.745 17.904C102.127 18.3307 101.817 18.9067 101.817 19.632C101.817 20.208 102.031 20.6773 102.457 21.04C102.884 21.4027 103.556 21.712 104.473 21.968L106.329 22.544C108.143 23.0773 109.551 23.824 110.553 24.784C111.577 25.7227 112.089 27.0027 112.089 28.624C112.089 30.352 111.428 31.76 110.105 32.848C108.804 33.936 106.937 34.48 104.505 34.48C103.204 34.48 102.052 34.3307 101.049 34.032C100.047 33.7547 99.2573 33.3813 98.6813 32.912C98.1053 32.4213 97.8173 31.888 97.8173 31.312C97.8173 30.8427 97.9559 30.448 98.2333 30.128C98.5319 29.808 98.8519 29.5733 99.1933 29.424C99.7266 29.8933 100.431 30.3307 101.305 30.736C102.201 31.1413 103.247 31.344 104.441 31.344ZM115.519 25.552H119.199V29.456C119.199 30.1813 119.412 30.704 119.839 31.024C120.287 31.3227 120.895 31.472 121.663 31.472C122.004 31.472 122.378 31.4187 122.783 31.312C123.188 31.2053 123.54 31.088 123.839 30.96C123.988 31.1307 124.116 31.3333 124.223 31.568C124.351 31.8027 124.415 32.0693 124.415 32.368C124.415 32.9653 124.127 33.4667 123.551 33.872C122.975 34.256 122.09 34.448 120.895 34.448C119.231 34.448 117.919 34.0853 116.959 33.36C115.999 32.6133 115.519 31.3867 115.519 29.68V25.552ZM117.727 22.16V19.248H124.031C124.116 19.376 124.202 19.5787 124.287 19.856C124.372 20.112 124.415 20.3893 124.415 20.688C124.415 21.1787 124.298 21.552 124.063 21.808C123.828 22.0427 123.519 22.16 123.135 22.16H117.727ZM119.199 26.448H115.519V14.896C115.69 14.832 115.924 14.7787 116.223 14.736C116.543 14.672 116.874 14.64 117.215 14.64C117.898 14.64 118.399 14.768 118.719 15.024C119.039 15.2587 119.199 15.696 119.199 16.336V26.448ZM142.018 26.448C142.018 28.0907 141.698 29.5093 141.058 30.704C140.439 31.8987 139.554 32.8267 138.402 33.488C137.25 34.128 135.885 34.448 134.306 34.448C132.749 34.448 131.383 34.128 130.21 33.488C129.058 32.8267 128.162 31.8987 127.522 30.704C126.903 29.5093 126.594 28.0907 126.594 26.448C126.594 24.8053 126.914 23.3973 127.554 22.224C128.194 21.0293 129.09 20.112 130.242 19.472C131.415 18.8107 132.781 18.48 134.338 18.48C135.874 18.48 137.218 18.8107 138.37 19.472C139.522 20.112 140.418 21.0293 141.058 22.224C141.698 23.4187 142.018 24.8267 142.018 26.448ZM134.306 21.424C133.111 21.424 132.162 21.872 131.458 22.768C130.754 23.6427 130.402 24.8693 130.402 26.448C130.402 28.048 130.743 29.2853 131.426 30.16C132.109 31.0347 133.069 31.472 134.306 31.472C135.543 31.472 136.503 31.0347 137.186 30.16C137.89 29.264 138.242 28.0267 138.242 26.448C138.242 24.8907 137.89 23.664 137.186 22.768C136.503 21.872 135.543 21.424 134.306 21.424ZM149.199 22.384V26.896H145.487V22.16C145.487 21.6267 145.604 21.1893 145.839 20.848C146.074 20.4853 146.426 20.144 146.895 19.824C147.535 19.44 148.346 19.12 149.327 18.864C150.308 18.608 151.364 18.48 152.495 18.48C154.436 18.48 155.407 19.0667 155.407 20.24C155.407 20.5173 155.364 20.784 155.279 21.04C155.215 21.2747 155.119 21.4773 154.991 21.648C154.778 21.6053 154.5 21.5627 154.159 21.52C153.839 21.4773 153.508 21.456 153.167 21.456C152.356 21.456 151.61 21.552 150.927 21.744C150.244 21.9147 149.668 22.128 149.199 22.384ZM145.487 25.552L149.199 25.776V33.936C149.028 34 148.794 34.0533 148.495 34.096C148.196 34.16 147.866 34.192 147.503 34.192C146.82 34.192 146.308 34.064 145.967 33.808C145.647 33.552 145.487 33.1147 145.487 32.496V25.552ZM159.243 28.4L159.083 25.776L167.851 24.496C167.787 23.6213 167.457 22.8747 166.859 22.256C166.262 21.616 165.419 21.296 164.331 21.296C163.201 21.296 162.262 21.6907 161.515 22.48C160.769 23.2693 160.385 24.4 160.363 25.872L160.459 27.376C160.63 28.8053 161.153 29.8613 162.027 30.544C162.923 31.2267 164.065 31.568 165.451 31.568C166.347 31.568 167.169 31.4293 167.915 31.152C168.683 30.8747 169.291 30.576 169.739 30.256C170.017 30.448 170.241 30.6827 170.411 30.96C170.603 31.216 170.699 31.5147 170.699 31.856C170.699 32.368 170.454 32.8267 169.963 33.232C169.494 33.616 168.843 33.9147 168.011 34.128C167.201 34.3413 166.273 34.448 165.227 34.448C163.563 34.448 162.102 34.1493 160.843 33.552C159.606 32.9333 158.635 32.016 157.931 30.8C157.227 29.584 156.875 28.0907 156.875 26.32C156.875 25.0187 157.067 23.8773 157.451 22.896C157.857 21.9147 158.401 21.104 159.083 20.464C159.766 19.8027 160.555 19.312 161.451 18.992C162.369 18.6507 163.329 18.48 164.331 18.48C165.718 18.48 166.934 18.768 167.979 19.344C169.046 19.8987 169.867 20.6773 170.443 21.68C171.041 22.6827 171.339 23.824 171.339 25.104C171.339 25.68 171.19 26.1067 170.891 26.384C170.614 26.6613 170.219 26.832 169.707 26.896L159.243 28.4Z" fill="#00C2CB"/>
<circle cx="16" cy="24" r="16" fill="#00ADB5"/>
<path d="M15.7188 15.1172C15.7344 15.1641 15.8047 15.2188 15.9297 15.2812C16.0703 15.3438 16.1562 15.375 16.1875 15.375C16.4062 15.3438 16.5312 15.3516 16.5625 15.3984C16.6094 15.4297 16.6562 15.4688 16.7031 15.5156C16.7656 15.4844 16.8125 15.4531 16.8438 15.4219C16.8906 15.375 16.9531 15.3516 17.0312 15.3516C17.1094 15.3984 17.1562 15.4688 17.1719 15.5625C17.2031 15.6406 17.2422 15.7188 17.2891 15.7969C17.2734 16 17.2734 16.1328 17.2891 16.1953C17.3047 16.2422 17.3125 16.2969 17.3125 16.3594C17.3125 16.5938 17.2422 16.8516 17.1016 17.1328C16.9609 17.3984 16.8594 17.6484 16.7969 17.8828C16.7188 17.9609 16.6641 18.0469 16.6328 18.1406C16.6172 18.2344 16.5781 18.3203 16.5156 18.3984C16.4688 18.5547 16.3984 18.6953 16.3047 18.8203C16.2109 18.9297 16.1484 19.0625 16.1172 19.2188C16.1016 19.2344 16.0625 19.2891 16 19.3828C15.9531 19.4766 15.8984 19.5781 15.8359 19.6875C15.7734 19.7969 15.7109 19.9062 15.6484 20.0156C15.6016 20.125 15.5703 20.1953 15.5547 20.2266C15.5078 20.3047 15.4688 20.3828 15.4375 20.4609C15.4219 20.5234 15.3906 20.5859 15.3438 20.6484C15.3125 20.7422 15.2578 20.8594 15.1797 21C15.1172 21.125 15.0391 21.2578 14.9453 21.3984C14.8672 21.5391 14.7969 21.6797 14.7344 21.8203C14.6719 21.9453 14.6406 22.0391 14.6406 22.1016C14.5312 22.2266 14.4688 22.3672 14.4531 22.5234C14.0312 23.3203 13.6562 24.1406 13.3281 24.9844C13 25.8125 12.6484 26.6328 12.2734 27.4453C12.2422 27.5859 12.2188 27.6719 12.2031 27.7031C12.2031 27.7344 12.1875 27.7578 12.1562 27.7734C12.1094 27.8828 12.0547 27.9922 11.9922 28.1016C11.9297 28.1953 11.8828 28.2969 11.8516 28.4062C11.7891 28.5781 11.7344 28.7422 11.6875 28.8984C11.6562 29.0391 11.5859 29.1875 11.4766 29.3438C11.4609 29.4375 11.4297 29.5312 11.3828 29.625C11.3359 29.7031 11.3203 29.7891 11.3359 29.8828C11.3828 29.9297 11.4531 29.9609 11.5469 29.9766C11.6562 29.9766 11.7422 29.9766 11.8047 29.9766C11.8984 29.9766 11.9922 29.9766 12.0859 29.9766C12.1797 29.9609 12.2734 29.9531 12.3672 29.9531C12.4609 29.9531 12.5469 29.9609 12.625 29.9766C12.7031 29.9766 12.7812 29.9766 12.8594 29.9766H13.4453C13.5078 29.9766 13.5625 29.9844 13.6094 30C13.6719 30 13.7266 30 13.7734 30C13.9453 30 14.125 29.9922 14.3125 29.9766C14.5156 29.9609 14.7109 29.9531 14.8984 29.9531C15.0078 29.9531 15.125 29.9531 15.25 29.9531C15.375 29.9375 15.5 29.9453 15.625 29.9766C15.6719 29.9922 15.7031 30.0156 15.7188 30.0469C15.75 30.0781 15.8047 30.0781 15.8828 30.0469C16.0234 30.1875 16.1094 30.2734 16.1406 30.3047C16.1719 30.3359 16.2031 30.3672 16.2344 30.3984C16.2344 30.4609 16.2344 30.5156 16.2344 30.5625C16.25 30.5938 16.2578 30.6328 16.2578 30.6797C16.2578 30.8516 16.2734 30.9688 16.3047 31.0312C16.2109 31.1719 16.1797 31.2734 16.2109 31.3359L16.0938 31.5938C16.0938 31.6719 16.0781 31.7578 16.0469 31.8516C16.0156 31.9297 16.0156 32.0078 16.0469 32.0859C15.9688 32.2109 15.9141 32.3516 15.8828 32.5078C15.8672 32.6484 15.8203 32.7812 15.7422 32.9062C15.6172 32.9531 15.4922 32.9766 15.3672 32.9766C15.2422 32.9609 15.1172 32.9688 14.9922 33C14.9141 32.9688 14.8047 32.9531 14.6641 32.9531C14.5391 32.9531 14.4141 32.9609 14.2891 32.9766C14.1797 32.9922 14.0625 33 13.9375 33C13.8906 33 13.8438 33 13.7969 33C13.75 32.9844 13.7031 32.9766 13.6562 32.9766C13.4844 33.0078 13.3906 33.0156 13.375 33C13.375 32.9844 13.3594 32.9766 13.3281 32.9766C13.1562 32.9766 12.9844 32.9844 12.8125 33C12.6406 33 12.4688 33 12.2969 33C12.2344 33 12.1797 33.0078 12.1328 33.0234C12.0859 33.0391 12.0391 33.0469 11.9922 33.0469C11.9453 33.0469 11.8984 33.0391 11.8516 33.0234C11.8047 33.0078 11.7578 33 11.7109 33C11.6328 33 11.5469 33.0078 11.4531 33.0234C11.3594 33.0391 11.2656 33.0469 11.1719 33.0469C11.125 33.0469 11.0781 33.0391 11.0312 33.0234C10.9844 33.0234 10.9375 33.0234 10.8906 33.0234C10.8125 33.0234 10.7344 33.0391 10.6562 33.0703C10.5781 33.1016 10.4922 33.1016 10.3984 33.0703L10.0703 33.1172C9.82031 33.1172 9.57031 33.1328 9.32031 33.1641C9.08594 33.1953 8.84375 33.2109 8.59375 33.2109C8.45312 33.2109 8.35938 33.2031 8.3125 33.1875C8.23438 33.125 8.14062 33.0859 8.03125 33.0703C7.92188 33.0547 7.82031 33.0234 7.72656 32.9766C7.71094 32.8516 7.65625 32.7578 7.5625 32.6953C7.46875 32.6328 7.38281 32.5625 7.30469 32.4844C7.32031 32.2969 7.30469 32.1797 7.25781 32.1328C7.27344 31.8828 7.22656 31.7188 7.11719 31.6406C7.13281 31.5 7.1875 31.3672 7.28125 31.2422C7.375 31.1172 7.42969 30.9844 7.44531 30.8438C7.57031 30.7188 7.64844 30.625 7.67969 30.5625C7.71094 30.5 7.72656 30.4297 7.72656 30.3516C7.82031 30.2422 7.90625 30.1094 7.98438 29.9531C8.07812 29.7812 8.16406 29.6016 8.24219 29.4141C8.32031 29.2266 8.39062 29.0469 8.45312 28.875C8.51562 28.6875 8.57031 28.5234 8.61719 28.3828C8.74219 28.2109 8.83594 28.0312 8.89844 27.8438C8.96094 27.6562 9.03125 27.4688 9.10938 27.2812C9.23438 27.0625 9.3125 26.9062 9.34375 26.8125C9.39062 26.7031 9.45312 26.6094 9.53125 26.5312C9.54688 26.4688 9.58594 26.3516 9.64844 26.1797C9.72656 25.9922 9.80469 25.7969 9.88281 25.5938C9.96094 25.3906 10.0391 25.2109 10.1172 25.0547C10.2109 24.8828 10.2734 24.7734 10.3047 24.7266C10.3203 24.6484 10.3516 24.5703 10.3984 24.4922C10.4453 24.4141 10.4688 24.3359 10.4688 24.2578C10.625 24.0547 10.75 23.8047 10.8438 23.5078C10.9375 23.2109 11.0391 22.9531 11.1484 22.7344C11.2578 22.5 11.375 22.2734 11.5 22.0547C11.625 21.8203 11.75 21.5859 11.875 21.3516C12.3594 20.4141 12.8438 19.4688 13.3281 18.5156C13.2969 18.4375 13.2266 18.3984 13.1172 18.3984C13.0234 18.3984 12.9453 18.375 12.8828 18.3281C12.7578 18.3594 12.6406 18.3672 12.5312 18.3516C12.4219 18.3359 12.3047 18.3281 12.1797 18.3281C11.8828 18.2656 11.6328 18.2422 11.4297 18.2578C11.2422 18.2578 11.0547 18.2578 10.8672 18.2578C10.7734 18.2578 10.6719 18.25 10.5625 18.2344C10.4688 18.2188 10.375 18.2109 10.2812 18.2109C10.0469 18.2109 9.80469 18.2266 9.55469 18.2578C9.32031 18.2891 9.09375 18.3281 8.875 18.375C8.73438 18.3438 8.58594 18.3281 8.42969 18.3281C8.28906 18.3281 8.15625 18.3125 8.03125 18.2812C7.96875 18.0469 7.95312 17.9141 7.98438 17.8828C7.95312 17.8359 7.91406 17.7969 7.86719 17.7656C7.83594 17.7188 7.80469 17.6719 7.77344 17.625C7.78906 17.4844 7.77344 17.3984 7.72656 17.3672C7.69531 17.3203 7.66406 17.2578 7.63281 17.1797C7.63281 17.0703 7.625 16.9688 7.60938 16.875C7.60938 16.7656 7.625 16.6562 7.65625 16.5469C7.625 16.4844 7.58594 16.4375 7.53906 16.4062C7.49219 16.3594 7.45312 16.3125 7.42188 16.2656C7.4375 16.1875 7.4375 16.125 7.42188 16.0781C7.42188 16.0156 7.42969 15.9531 7.44531 15.8906C7.53906 15.8125 7.64062 15.7578 7.75 15.7266C7.85938 15.6797 7.94531 15.6094 8.00781 15.5156C8.21094 15.4531 8.41406 15.4141 8.61719 15.3984C8.83594 15.3828 9.04688 15.375 9.25 15.375C9.46875 15.375 9.67188 15.3828 9.85938 15.3984C10.0625 15.3984 10.2578 15.4062 10.4453 15.4219C10.5859 15.4219 10.7109 15.4453 10.8203 15.4922C10.9453 15.5234 11.0703 15.5469 11.1953 15.5625C11.2734 15.5781 11.3516 15.5859 11.4297 15.5859C11.5078 15.5703 11.5859 15.5625 11.6641 15.5625C11.9297 15.5625 12.1953 15.5703 12.4609 15.5859C12.7422 15.5859 13.0156 15.5859 13.2812 15.5859C13.5 15.5859 13.7031 15.5859 13.8906 15.5859C14.0781 15.5859 14.2656 15.5703 14.4531 15.5391C14.5156 15.4766 14.5625 15.4141 14.5938 15.3516C14.625 15.2891 14.6562 15.2266 14.6875 15.1641C14.8281 15.1641 14.9219 15.1719 14.9688 15.1875C15.0156 15.1875 15.0547 15.1875 15.0859 15.1875L15.3672 15.3047C15.4297 15.3047 15.5 15.2969 15.5781 15.2812C15.6562 15.25 15.7031 15.1953 15.7188 15.1172ZM23.7344 15.5625C23.8438 15.7656 23.8984 16 23.8984 16.2656C23.8984 16.5 23.8516 16.75 23.7578 17.0156C23.6641 17.2812 23.5156 17.4844 23.3125 17.625C23.1719 17.9375 23.0312 18.1953 22.8906 18.3984C22.7656 18.5859 22.6406 18.7734 22.5156 18.9609C22.4688 19.0703 22.4219 19.1797 22.375 19.2891C22.3281 19.3828 22.2656 19.4844 22.1875 19.5938C22.1406 19.6719 22.0391 19.8281 21.8828 20.0625C21.7266 20.2969 21.5625 20.5469 21.3906 20.8125C21.2344 21.0625 21.0938 21.3047 20.9688 21.5391C20.8438 21.7734 20.7812 21.9219 20.7812 21.9844C20.7812 22.0469 20.8516 22.125 20.9922 22.2188C21.1484 22.3125 21.25 22.3828 21.2969 22.4297C21.375 22.5078 21.4453 22.5859 21.5078 22.6641C21.5859 22.7422 21.6641 22.8203 21.7422 22.8984C21.9141 23.0391 22.0781 23.1797 22.2344 23.3203C22.4062 23.4609 22.5781 23.6172 22.75 23.7891C23.0781 24.0859 23.4219 24.3672 23.7812 24.6328C24.1406 24.8984 24.4609 25.2109 24.7422 25.5703C25.0078 25.6484 25.1797 25.8359 25.2578 26.1328C25.3359 26.4297 25.3594 26.7109 25.3281 26.9766C25.3594 27.0234 25.3828 27.0703 25.3984 27.1172C25.4297 27.1641 25.4609 27.2188 25.4922 27.2812C25.4922 27.5312 25.4531 27.7188 25.375 27.8438C25.3125 27.9531 25.2422 28.0938 25.1641 28.2656C25.0859 28.4219 25.0312 28.5781 25 28.7344C24.9844 28.8906 24.9375 29.0312 24.8594 29.1562C24.8281 29.2031 24.7812 29.2422 24.7188 29.2734C24.6719 29.3047 24.6328 29.3516 24.6016 29.4141C24.5391 29.5234 24.4844 29.6562 24.4375 29.8125C24.4062 29.9531 24.3594 30.0859 24.2969 30.2109C24.25 30.3359 24.1875 30.4609 24.1094 30.5859C24.0469 30.7109 23.9922 30.8359 23.9453 30.9609C23.9141 31.0391 23.8828 31.1328 23.8516 31.2422C23.8359 31.3516 23.7656 31.4297 23.6406 31.4766C23.5625 31.7578 23.4531 32.0312 23.3125 32.2969C23.1875 32.5625 23.0859 32.8359 23.0078 33.1172C22.8672 33.1641 22.6875 33.25 22.4688 33.375C22.2656 33.5156 22.1016 33.5859 21.9766 33.5859C21.9297 33.5859 21.8906 33.5625 21.8594 33.5156C21.8281 33.4688 21.7812 33.4297 21.7188 33.3984C21.6875 33.3828 21.6406 33.3828 21.5781 33.3984C21.5312 33.4141 21.4922 33.4219 21.4609 33.4219C21.3828 33.4219 21.3203 33.3906 21.2734 33.3281C21.2422 33.2656 21.1953 33.2188 21.1328 33.1875C21.0859 33.2031 21.0391 33.2188 20.9922 33.2344C20.9453 33.25 20.8984 33.2578 20.8516 33.2578C20.7422 33.2578 20.6797 33.2266 20.6641 33.1641C20.6484 33.1172 20.6016 33.0703 20.5234 33.0234C20.3359 32.9297 20.2266 32.8438 20.1953 32.7656C20.1641 32.6875 20.1172 32.6328 20.0547 32.6016C20.1641 32.1953 20.3125 31.8125 20.5 31.4531C20.6875 31.0781 20.8672 30.7031 21.0391 30.3281C21.0859 30.2031 21.1406 30.0859 21.2031 29.9766C21.2812 29.8672 21.3516 29.75 21.4141 29.625C21.4609 29.5156 21.5312 29.375 21.625 29.2031C21.7188 29.0312 21.8047 28.8516 21.8828 28.6641C21.9609 28.4766 22.0312 28.3047 22.0938 28.1484C22.1562 27.9766 22.1875 27.8359 22.1875 27.7266C22.1875 27.5078 22.125 27.3438 22 27.2344C21.5469 26.8594 21.1172 26.4766 20.7109 26.0859C20.3203 25.6953 19.9062 25.2969 19.4688 24.8906C19.1875 24.6406 18.8828 24.3828 18.5547 24.1172C18.4922 24.0703 18.4453 24 18.4141 23.9062C18.3828 23.8125 18.3359 23.7266 18.2734 23.6484C18.2422 23.5859 18.1953 23.5391 18.1328 23.5078C18.0703 23.4766 18.0234 23.4297 17.9922 23.3672C17.9453 23.3047 17.9141 23.2344 17.8984 23.1562C17.8828 23.0625 17.8359 22.9922 17.7578 22.9453C17.6797 22.8672 17.5859 22.8203 17.4766 22.8047C17.3672 22.7891 17.2734 22.7422 17.1953 22.6641C17.2422 22.6172 17.2656 22.5703 17.2656 22.5234C17.25 22.4609 17.2422 22.4062 17.2422 22.3594C17.2422 22.25 17.2891 22.1719 17.3828 22.125C17.4766 22.0781 17.5234 21.9922 17.5234 21.8672C17.5859 21.7422 17.6328 21.6641 17.6641 21.6328C17.8359 21.2109 18.0312 20.8047 18.25 20.4141C18.4688 20.0234 18.6953 19.6328 18.9297 19.2422C19.0078 19.1172 19.0781 19 19.1406 18.8906C19.2188 18.7656 19.2969 18.6406 19.375 18.5156C19.4219 18.4062 19.4609 18.3125 19.4922 18.2344C19.5391 18.1406 19.6016 18.0547 19.6797 17.9766C19.8984 17.7266 20.0781 17.4922 20.2188 17.2734C20.375 17.0547 20.4922 16.7891 20.5703 16.4766C20.5859 16.3984 20.6172 16.2891 20.6641 16.1484C20.7109 16.0078 20.7656 15.8672 20.8281 15.7266C20.9062 15.5859 20.9844 15.4609 21.0625 15.3516C21.1406 15.2422 21.2266 15.1875 21.3203 15.1875C21.3984 15.1875 21.5078 15.2188 21.6484 15.2812C21.8047 15.3438 21.9375 15.3906 22.0469 15.4219C22.1406 15.4531 22.2344 15.4844 22.3281 15.5156C22.4375 15.5312 22.5391 15.5391 22.6328 15.5391C22.6953 15.5391 22.7578 15.5234 22.8203 15.4922C22.8828 15.4453 22.9531 15.4219 23.0312 15.4219C23.1562 15.4219 23.2734 15.4453 23.3828 15.4922C23.4922 15.5234 23.6094 15.5469 23.7344 15.5625Z" fill="#EEEEEE"/>
</svg>
