<svg width="183" height="41" viewBox="0 0 183 41" fill="none" xmlns="http://www.w3.org/2000/svg">
<path d="M38.516 23.056H35.212V14.768C35.212 14.2267 35.3707 13.7973 35.688 13.48C36.024 13.1627 36.4627 13.004 37.004 13.004C37.3027 13.004 37.592 13.032 37.872 13.088C38.1707 13.144 38.3853 13.1907 38.516 13.228V23.056ZM36.976 23.196V20.48H45.348C45.4227 20.6293 45.4973 20.816 45.572 21.04C45.6653 21.264 45.712 21.5067 45.712 21.768C45.712 22.2347 45.6 22.5893 45.376 22.832C45.1707 23.0747 44.8813 23.196 44.508 23.196H36.976ZM37.004 15.72V13.004H46.3C46.3933 13.1347 46.4773 13.3213 46.552 13.564C46.6267 13.788 46.664 14.0307 46.664 14.292C46.664 14.7587 46.552 15.1133 46.328 15.356C46.1227 15.5987 45.8333 15.72 45.46 15.72H37.004ZM35.212 20.732H38.572V29.972C38.4227 30.0093 38.1987 30.0467 37.9 30.084C37.62 30.14 37.3307 30.168 37.032 30.168C36.3973 30.168 35.9307 30.056 35.632 29.832C35.352 29.5893 35.212 29.188 35.212 28.628V20.732ZM48.9574 24.988V22.72H52.2054V24.932C52.2054 25.94 52.4667 26.668 52.9894 27.116C53.5307 27.564 54.2774 27.788 55.2294 27.788C55.8454 27.788 56.368 27.732 56.7974 27.62C57.2267 27.4893 57.5534 27.3587 57.7774 27.228V22.72H61.0254V27.452C61.0254 27.8813 60.9507 28.236 60.8014 28.516C60.6707 28.796 60.4094 29.048 60.0174 29.272C59.5134 29.5893 58.8507 29.8507 58.0294 30.056C57.208 30.28 56.2654 30.392 55.2014 30.392C53.9134 30.392 52.8027 30.2053 51.8694 29.832C50.936 29.4587 50.2174 28.8707 49.7134 28.068C49.2094 27.2653 48.9574 26.2387 48.9574 24.988ZM61.0254 24.092H57.7774V16.84C57.908 16.8027 58.104 16.7653 58.3654 16.728C58.6454 16.672 58.944 16.644 59.2614 16.644C59.8774 16.644 60.3254 16.756 60.6054 16.98C60.8854 17.1853 61.0254 17.5773 61.0254 18.156V24.092ZM52.2054 24.092H48.9574V16.84C49.088 16.8027 49.284 16.7653 49.5454 16.728C49.8254 16.672 50.124 16.644 50.4414 16.644C51.0574 16.644 51.5054 16.756 51.7854 16.98C52.0654 17.1853 52.2054 17.5773 52.2054 18.156V24.092ZM66.3587 10.428C67.4041 10.428 68.2161 10.68 68.7947 11.184C69.3921 11.688 69.6907 12.388 69.6907 13.284C69.6907 13.8627 69.5227 14.4133 69.1867 14.936C68.8507 15.4587 68.3281 16.0093 67.6187 16.588L66.0227 17.876H69.6627C69.7187 17.988 69.7654 18.1187 69.8027 18.268C69.8587 18.4173 69.8867 18.576 69.8867 18.744C69.8867 19.024 69.8121 19.2387 69.6627 19.388C69.5321 19.5187 69.3267 19.584 69.0467 19.584H64.0067C63.8574 19.4533 63.7361 19.304 63.6427 19.136C63.5681 18.968 63.5307 18.7627 63.5307 18.52C63.5307 18.24 63.5681 18.0067 63.6427 17.82C63.7174 17.6333 63.8201 17.484 63.9507 17.372L66.2187 15.356C66.7227 14.9267 67.0774 14.5533 67.2827 14.236C67.4881 13.9187 67.5907 13.6107 67.5907 13.312C67.5907 12.9387 67.4601 12.6587 67.1987 12.472C66.9374 12.2667 66.6014 12.164 66.1907 12.164C65.8174 12.164 65.4721 12.2293 65.1547 12.36C64.8561 12.4907 64.5854 12.64 64.3427 12.808C64.1934 12.7147 64.0721 12.5933 63.9787 12.444C63.8854 12.276 63.8387 12.0707 63.8387 11.828C63.8387 11.3987 64.0814 11.0627 64.5667 10.82C65.0521 10.5587 65.6494 10.428 66.3587 10.428ZM76.1957 23.056H72.8917V14.768C72.8917 14.2267 73.0504 13.7973 73.3677 13.48C73.7037 13.1627 74.1424 13.004 74.6837 13.004C74.9824 13.004 75.2717 13.032 75.5517 13.088C75.8504 13.144 76.065 13.1907 76.1957 13.228V23.056ZM74.6557 23.196V20.48H83.0277C83.1024 20.6293 83.177 20.816 83.2517 21.04C83.345 21.264 83.3917 21.5067 83.3917 21.768C83.3917 22.2347 83.2797 22.5893 83.0557 22.832C82.8504 23.0747 82.561 23.196 82.1877 23.196H74.6557ZM74.6837 15.72V13.004H83.9797C84.073 13.1347 84.157 13.3213 84.2317 13.564C84.3064 13.788 84.3437 14.0307 84.3437 14.292C84.3437 14.7587 84.2317 15.1133 84.0077 15.356C83.8024 15.5987 83.513 15.72 83.1397 15.72H74.6837ZM72.8917 20.732H76.2517V29.972C76.1024 30.0093 75.8784 30.0467 75.5797 30.084C75.2997 30.14 75.0104 30.168 74.7117 30.168C74.077 30.168 73.6104 30.056 73.3117 29.832C73.0317 29.5893 72.8917 29.188 72.8917 28.628V20.732ZM91.5143 27.928C92.1116 27.928 92.6343 27.872 93.0823 27.76C93.549 27.6293 93.8943 27.4893 94.1183 27.34V24.008L91.2063 24.316C90.4223 24.372 89.825 24.5493 89.4143 24.848C89.0036 25.128 88.7983 25.5387 88.7983 26.08C88.7983 26.64 89.013 27.088 89.4423 27.424C89.8903 27.76 90.581 27.928 91.5143 27.928ZM91.4023 16.42C93.1943 16.42 94.6223 16.8027 95.6863 17.568C96.7503 18.3333 97.2823 19.5373 97.2823 21.18V27.676C97.2823 28.1053 97.1796 28.4507 96.9743 28.712C96.769 28.9547 96.4983 29.1787 96.1623 29.384C95.6396 29.6827 94.9863 29.9253 94.2023 30.112C93.4183 30.3173 92.5223 30.42 91.5143 30.42C89.685 30.42 88.2383 30.0653 87.1743 29.356C86.129 28.628 85.6063 27.564 85.6063 26.164C85.6063 24.932 85.9983 23.9893 86.7823 23.336C87.585 22.664 88.7423 22.2533 90.2543 22.104L94.0903 21.712V21.152C94.0903 20.3867 93.829 19.8267 93.3063 19.472C92.7836 19.1173 92.0556 18.94 91.1223 18.94C90.3943 18.94 89.6756 19.0427 88.9663 19.248C88.2756 19.4347 87.6596 19.6587 87.1183 19.92C86.9316 19.7707 86.7636 19.5747 86.6143 19.332C86.4836 19.0893 86.4183 18.8373 86.4183 18.576C86.4183 17.9227 86.773 17.4373 87.4823 17.12C88.005 16.896 88.6116 16.728 89.3023 16.616C89.993 16.4853 90.693 16.42 91.4023 16.42ZM102.507 10.428C103.552 10.428 104.364 10.68 104.943 11.184C105.54 11.688 105.839 12.388 105.839 13.284C105.839 13.8627 105.671 14.4133 105.335 14.936C104.999 15.4587 104.476 16.0093 103.767 16.588L102.171 17.876H105.811C105.867 17.988 105.914 18.1187 105.951 18.268C106.007 18.4173 106.035 18.576 106.035 18.744C106.035 19.024 105.96 19.2387 105.811 19.388C105.68 19.5187 105.475 19.584 105.195 19.584H100.155C100.006 19.4533 99.8845 19.304 99.7912 19.136C99.7165 18.968 99.6792 18.7627 99.6792 18.52C99.6792 18.24 99.7165 18.0067 99.7912 17.82C99.8658 17.6333 99.9685 17.484 100.099 17.372L102.367 15.356C102.871 14.9267 103.226 14.5533 103.431 14.236C103.636 13.9187 103.739 13.6107 103.739 13.312C103.739 12.9387 103.608 12.6587 103.347 12.472C103.086 12.2667 102.75 12.164 102.339 12.164C101.966 12.164 101.62 12.2293 101.303 12.36C101.004 12.4907 100.734 12.64 100.491 12.808C100.342 12.7147 100.22 12.5933 100.127 12.444C100.034 12.276 99.9872 12.0707 99.9872 11.828C99.9872 11.3987 100.23 11.0627 100.715 10.82C101.2 10.5587 101.798 10.428 102.507 10.428Z" fill="#6D28D9"/>
<path d="M113.968 27.676C115.069 27.676 115.891 27.452 116.432 27.004C116.973 26.5373 117.244 25.9587 117.244 25.268C117.244 24.6707 117.029 24.176 116.6 23.784C116.189 23.392 115.555 23.0653 114.696 22.804L112.764 22.216C111.868 21.9173 111.075 21.572 110.384 21.18C109.712 20.788 109.189 20.284 108.816 19.668C108.443 19.052 108.256 18.3053 108.256 17.428C108.256 15.916 108.816 14.7307 109.936 13.872C111.056 12.9947 112.577 12.556 114.5 12.556C115.545 12.556 116.469 12.668 117.272 12.892C118.093 13.0973 118.737 13.3867 119.204 13.76C119.671 14.1333 119.904 14.5627 119.904 15.048C119.904 15.3653 119.82 15.6547 119.652 15.916C119.484 16.1773 119.269 16.392 119.008 16.56C118.579 16.224 117.981 15.9347 117.216 15.692C116.469 15.4493 115.648 15.328 114.752 15.328C113.781 15.328 113.025 15.524 112.484 15.916C111.943 16.2893 111.672 16.7933 111.672 17.428C111.672 17.932 111.859 18.3427 112.232 18.66C112.605 18.9773 113.193 19.248 113.996 19.472L115.62 19.976C117.207 20.4427 118.439 21.096 119.316 21.936C120.212 22.7573 120.66 23.8773 120.66 25.296C120.66 26.808 120.081 28.04 118.924 28.992C117.785 29.944 116.152 30.42 114.024 30.42C112.885 30.42 111.877 30.2893 111 30.028C110.123 29.7853 109.432 29.4587 108.928 29.048C108.424 28.6187 108.172 28.152 108.172 27.648C108.172 27.2373 108.293 26.892 108.536 26.612C108.797 26.332 109.077 26.1267 109.376 25.996C109.843 26.4067 110.459 26.7893 111.224 27.144C112.008 27.4987 112.923 27.676 113.968 27.676ZM123.661 22.608H126.881V26.024C126.881 26.6587 127.068 27.116 127.441 27.396C127.833 27.6573 128.365 27.788 129.037 27.788C129.336 27.788 129.662 27.7413 130.017 27.648C130.372 27.5547 130.68 27.452 130.941 27.34C131.072 27.4893 131.184 27.6667 131.277 27.872C131.389 28.0773 131.445 28.3107 131.445 28.572C131.445 29.0947 131.193 29.5333 130.689 29.888C130.185 30.224 129.41 30.392 128.365 30.392C126.909 30.392 125.761 30.0747 124.921 29.44C124.081 28.7867 123.661 27.7133 123.661 26.22V22.608ZM125.593 19.64V17.092H131.109C131.184 17.204 131.258 17.3813 131.333 17.624C131.408 17.848 131.445 18.0907 131.445 18.352C131.445 18.7813 131.342 19.108 131.137 19.332C130.932 19.5373 130.661 19.64 130.325 19.64H125.593ZM126.881 23.392H123.661V13.284C123.81 13.228 124.016 13.1813 124.277 13.144C124.557 13.088 124.846 13.06 125.145 13.06C125.742 13.06 126.181 13.172 126.461 13.396C126.741 13.6013 126.881 13.984 126.881 14.544V23.392ZM146.848 23.392C146.848 24.8293 146.568 26.0707 146.008 27.116C145.466 28.1613 144.692 28.9733 143.684 29.552C142.676 30.112 141.481 30.392 140.1 30.392C138.737 30.392 137.542 30.112 136.516 29.552C135.508 28.9733 134.724 28.1613 134.164 27.116C133.622 26.0707 133.352 24.8293 133.352 23.392C133.352 21.9547 133.632 20.7227 134.192 19.696C134.752 18.6507 135.536 17.848 136.544 17.288C137.57 16.7093 138.765 16.42 140.128 16.42C141.472 16.42 142.648 16.7093 143.656 17.288C144.664 17.848 145.448 18.6507 146.008 19.696C146.568 20.7413 146.848 21.9733 146.848 23.392ZM140.1 18.996C139.054 18.996 138.224 19.388 137.608 20.172C136.992 20.9373 136.684 22.0107 136.684 23.392C136.684 24.792 136.982 25.8747 137.58 26.64C138.177 27.4053 139.017 27.788 140.1 27.788C141.182 27.788 142.022 27.4053 142.62 26.64C143.236 25.856 143.544 24.7733 143.544 23.392C143.544 22.0293 143.236 20.956 142.62 20.172C142.022 19.388 141.182 18.996 140.1 18.996ZM153.131 19.836V23.784H149.883V19.64C149.883 19.1733 149.986 18.7907 150.191 18.492C150.396 18.1747 150.704 17.876 151.115 17.596C151.675 17.26 152.384 16.98 153.243 16.756C154.102 16.532 155.026 16.42 156.015 16.42C157.714 16.42 158.563 16.9333 158.563 17.96C158.563 18.2027 158.526 18.436 158.451 18.66C158.395 18.8653 158.311 19.0427 158.199 19.192C158.012 19.1547 157.77 19.1173 157.471 19.08C157.191 19.0427 156.902 19.024 156.603 19.024C155.894 19.024 155.24 19.108 154.643 19.276C154.046 19.4253 153.542 19.612 153.131 19.836ZM149.883 22.608L153.131 22.804V29.944C152.982 30 152.776 30.0467 152.515 30.084C152.254 30.14 151.964 30.168 151.647 30.168C151.05 30.168 150.602 30.056 150.303 29.832C150.023 29.608 149.883 29.2253 149.883 28.684V22.608ZM161.92 25.1L161.78 22.804L169.452 21.684C169.396 20.9187 169.107 20.2653 168.584 19.724C168.061 19.164 167.324 18.884 166.372 18.884C165.383 18.884 164.561 19.2293 163.908 19.92C163.255 20.6107 162.919 21.6 162.9 22.888L162.984 24.204C163.133 25.4547 163.591 26.3787 164.356 26.976C165.14 27.5733 166.139 27.872 167.352 27.872C168.136 27.872 168.855 27.7507 169.508 27.508C170.18 27.2653 170.712 27.004 171.104 26.724C171.347 26.892 171.543 27.0973 171.692 27.34C171.86 27.564 171.944 27.8253 171.944 28.124C171.944 28.572 171.729 28.9733 171.3 29.328C170.889 29.664 170.32 29.9253 169.592 30.112C168.883 30.2987 168.071 30.392 167.156 30.392C165.7 30.392 164.421 30.1307 163.32 29.608C162.237 29.0667 161.388 28.264 160.772 27.2C160.156 26.136 159.848 24.8293 159.848 23.28C159.848 22.1413 160.016 21.1427 160.352 20.284C160.707 19.4253 161.183 18.716 161.78 18.156C162.377 17.5773 163.068 17.148 163.852 16.868C164.655 16.5693 165.495 16.42 166.372 16.42C167.585 16.42 168.649 16.672 169.564 17.176C170.497 17.6613 171.216 18.3427 171.72 19.22C172.243 20.0973 172.504 21.096 172.504 22.216C172.504 22.72 172.373 23.0933 172.112 23.336C171.869 23.5787 171.524 23.728 171.076 23.784L161.92 25.1Z" fill="white"/>
<circle cx="13.5" cy="20.1938" r="13.5" fill="#6D28D9"/>
<path d="M13.6172 13.5924C13.7214 13.7487 13.806 13.9114 13.8711 14.0807C13.9492 14.2369 13.9883 14.3476 13.9883 14.4127C13.9883 14.5039 13.9753 14.582 13.9492 14.6471C13.9232 14.6992 13.8841 14.7643 13.832 14.8424C13.3372 15.0638 12.8359 15.2916 12.3281 15.526C11.8333 15.7604 11.3255 15.9817 10.8047 16.1901C10.6745 16.2421 10.5508 16.2942 10.4336 16.3463C10.3164 16.3984 10.1862 16.4505 10.043 16.5026C10.0169 16.5286 9.95833 16.5546 9.86719 16.5807C9.78906 16.5937 9.71745 16.6002 9.65234 16.6002C9.67839 16.8606 9.69141 17.1276 9.69141 17.401C9.70443 17.6744 9.71745 17.9479 9.73047 18.2213C9.73047 18.2994 9.74349 18.3776 9.76953 18.4557C9.79557 18.5208 9.80859 18.5924 9.80859 18.6705C9.83464 18.9179 9.84766 19.1588 9.84766 19.3932C9.84766 19.6276 9.86068 19.8684 9.88672 20.1158C10.3685 19.9075 10.8438 19.6992 11.3125 19.4908C11.7943 19.2695 12.276 19.0546 12.7578 18.8463C12.8359 18.8593 12.9206 18.8724 13.0117 18.8854C13.1029 18.8984 13.1875 18.9244 13.2656 18.9635C13.2917 18.9895 13.3177 19.0221 13.3438 19.0612C13.3698 19.1002 13.4023 19.1328 13.4414 19.1588C13.4414 19.2239 13.4805 19.3216 13.5586 19.4518C13.6497 19.569 13.6953 19.6992 13.6953 19.8424C13.6953 19.8684 13.7148 19.914 13.7539 19.9791C13.793 20.0312 13.819 20.0703 13.832 20.0963C13.832 20.2265 13.8255 20.2981 13.8125 20.3112C13.9036 20.3763 13.9622 20.4609 13.9883 20.5651C14.0273 20.6692 14.0469 20.7734 14.0469 20.8776C13.8125 21.138 13.5781 21.3138 13.3438 21.4049C13.1224 21.4961 12.8945 21.5937 12.6602 21.6979C12.5951 21.7369 12.5234 21.776 12.4453 21.8151C12.3672 21.8541 12.2891 21.8932 12.2109 21.9323C12.1068 21.9713 12.0026 22.0104 11.8984 22.0494C11.8073 22.0755 11.7096 22.1145 11.6055 22.1666C11.4492 22.2578 11.2734 22.3619 11.0781 22.4791C10.8828 22.5963 10.707 22.6679 10.5508 22.694C10.4466 22.72 10.3555 22.7395 10.2773 22.7526C10.2122 22.7526 10.1341 22.7851 10.043 22.8502C10.0299 23.0065 10.0234 23.1627 10.0234 23.319C10.0365 23.4622 10.043 23.6054 10.043 23.7487C10.043 23.9049 10.0299 24.0612 10.0039 24.2174C9.99089 24.3606 9.98438 24.5104 9.98438 24.6666C9.98438 24.927 9.97135 25.1875 9.94531 25.4479C9.91927 25.6953 9.90625 25.9427 9.90625 26.1901C9.90625 26.3463 9.91276 26.5026 9.92578 26.6588C9.9388 26.802 9.94531 26.9453 9.94531 27.0885C9.94531 27.1666 9.93229 27.2382 9.90625 27.3033C9.88021 27.3684 9.85417 27.4336 9.82812 27.4987C9.64583 27.5247 9.53516 27.5247 9.49609 27.4987C9.45703 27.4596 9.41146 27.427 9.35938 27.401C9.29427 27.401 9.2487 27.427 9.22266 27.4791C9.20964 27.5312 9.17057 27.5703 9.10547 27.5963C9.05339 27.5833 8.99479 27.5833 8.92969 27.5963C8.8776 27.5963 8.83203 27.5833 8.79297 27.5573C8.6888 27.5963 8.59115 27.6419 8.5 27.694C8.42188 27.7461 8.33073 27.7851 8.22656 27.8112C8.03125 27.7851 7.90755 27.7721 7.85547 27.7721C7.81641 27.7851 7.77083 27.7981 7.71875 27.8112C7.6276 27.72 7.58203 27.6093 7.58203 27.4791C7.59505 27.3359 7.5625 27.2122 7.48438 27.108C7.48438 26.9778 7.47135 26.8997 7.44531 26.8737C7.41927 26.8346 7.40625 26.802 7.40625 26.776C7.40625 26.7369 7.40625 26.6979 7.40625 26.6588C7.41927 26.6067 7.42578 26.5546 7.42578 26.5026C7.42578 26.3854 7.41927 26.2942 7.40625 26.2291C7.41927 26.151 7.43229 26.0338 7.44531 25.8776C7.45833 25.7083 7.47135 25.539 7.48438 25.3698C7.4974 25.1875 7.50391 25.0117 7.50391 24.8424C7.50391 24.6731 7.50391 24.5364 7.50391 24.4323C7.50391 24.3671 7.51693 24.3151 7.54297 24.276C7.56901 24.2239 7.58203 24.1653 7.58203 24.1002C7.58203 23.9961 7.57552 23.9049 7.5625 23.8268C7.5625 23.7356 7.5625 23.6445 7.5625 23.5533C7.5625 23.3711 7.5625 23.1888 7.5625 23.0065C7.57552 22.8242 7.58203 22.6419 7.58203 22.4596C7.58203 21.8997 7.54948 21.3528 7.48438 20.819C7.43229 20.2721 7.40625 19.7252 7.40625 19.1783C7.40625 18.8789 7.39323 18.5533 7.36719 18.2018C7.34115 17.8372 7.30859 17.5052 7.26953 17.2057C7.26953 17.1406 7.25651 17.0885 7.23047 17.0494C7.21745 16.9974 7.21094 16.9453 7.21094 16.8932C7.19792 16.7369 7.19141 16.5807 7.19141 16.4244C7.19141 16.2552 7.19141 16.0859 7.19141 15.9166C7.19141 15.8125 7.19141 15.6692 7.19141 15.4869C7.19141 15.2916 7.19141 15.0963 7.19141 14.901C7.19141 14.6927 7.19141 14.4974 7.19141 14.3151C7.20443 14.1328 7.21745 14.0026 7.23047 13.9244C7.23047 13.9114 7.26953 13.8919 7.34766 13.8658C7.42578 13.8268 7.47786 13.8073 7.50391 13.8073C7.56901 13.8073 7.62109 13.8268 7.66016 13.8658C7.69922 13.9049 7.74479 13.944 7.79688 13.983C7.84896 13.944 7.90104 13.9244 7.95312 13.9244C8.01823 13.9244 8.08333 13.9244 8.14844 13.9244C8.34375 13.8854 8.46094 13.8919 8.5 13.944C8.55208 13.983 8.59115 14.0026 8.61719 14.0026C8.65625 14.0026 8.6888 13.983 8.71484 13.944C8.74089 13.9049 8.77344 13.8854 8.8125 13.8854C8.91667 13.8854 8.97526 13.9114 8.98828 13.9635C9.01432 14.0156 9.05339 14.0416 9.10547 14.0416C9.15755 14.0416 9.19661 14.0221 9.22266 13.983C9.2487 13.944 9.27474 13.9244 9.30078 13.9244C9.33984 13.9244 9.37891 13.9375 9.41797 13.9635C9.45703 13.9765 9.49609 13.983 9.53516 13.983C9.60026 13.983 9.67188 13.9635 9.75 13.9244C9.82812 13.8724 9.89974 13.8333 9.96484 13.8073C10.069 13.7812 10.1602 13.7487 10.2383 13.7096C10.3294 13.6705 10.4206 13.638 10.5117 13.6119C10.707 13.4948 10.8503 13.4231 10.9414 13.3971C11.0456 13.358 11.1497 13.3125 11.2539 13.2604C11.4753 13.1562 11.6836 13.0586 11.8789 12.9674C12.0872 12.8632 12.3021 12.7656 12.5234 12.6744C12.6406 12.6744 12.7188 12.6484 12.7578 12.5963C12.849 12.6354 12.9661 12.6419 13.1094 12.6158C13.2656 12.7591 13.3633 12.8698 13.4023 12.9479C13.4544 13.026 13.513 13.0976 13.5781 13.1627C13.6562 13.2669 13.7083 13.319 13.7344 13.319C13.7344 13.358 13.7148 13.4036 13.6758 13.4557C13.6367 13.5078 13.6172 13.5533 13.6172 13.5924ZM19.9844 13.1627C20.0755 13.332 20.1211 13.5273 20.1211 13.7487C20.1211 13.944 20.082 14.1523 20.0039 14.3737C19.9258 14.595 19.8021 14.7643 19.6328 14.8815C19.5156 15.1419 19.3984 15.3567 19.2812 15.526C19.1771 15.6823 19.0729 15.8385 18.9688 15.9948C18.9297 16.0859 18.8906 16.177 18.8516 16.2682C18.8125 16.3463 18.7604 16.4309 18.6953 16.5221C18.6562 16.5872 18.5716 16.7174 18.4414 16.9127C18.3112 17.108 18.1745 17.3164 18.0312 17.5377C17.901 17.7461 17.7839 17.9479 17.6797 18.1432C17.5755 18.3385 17.5234 18.4622 17.5234 18.5143C17.5234 18.5664 17.582 18.6315 17.6992 18.7096C17.8294 18.7877 17.9141 18.8463 17.9531 18.8854C18.0182 18.9505 18.0768 19.0156 18.1289 19.0807C18.194 19.1458 18.2591 19.2109 18.3242 19.276C18.4674 19.3932 18.6042 19.5104 18.7344 19.6276C18.8776 19.7448 19.0208 19.875 19.1641 20.0182C19.4375 20.2656 19.724 20.5 20.0234 20.7213C20.3229 20.9427 20.5898 21.2031 20.8242 21.5026C21.0456 21.5677 21.1888 21.7239 21.2539 21.9713C21.319 22.2187 21.3385 22.4531 21.3125 22.6744C21.3385 22.7135 21.3581 22.7526 21.3711 22.7916C21.3971 22.8307 21.4232 22.8763 21.4492 22.9283C21.4492 23.1367 21.4167 23.2929 21.3516 23.3971C21.2995 23.4882 21.2409 23.6054 21.1758 23.7487C21.1107 23.8789 21.0651 24.0091 21.0391 24.1393C21.026 24.2695 20.987 24.3867 20.9219 24.4908C20.8958 24.5299 20.8568 24.5625 20.8047 24.5885C20.7656 24.6145 20.7331 24.6536 20.707 24.7057C20.6549 24.7968 20.6094 24.9075 20.5703 25.0377C20.5443 25.1549 20.5052 25.2656 20.4531 25.3698C20.4141 25.4739 20.362 25.5781 20.2969 25.6823C20.2448 25.7864 20.1992 25.8906 20.1602 25.9948C20.1341 26.0599 20.1081 26.138 20.082 26.2291C20.069 26.3203 20.0104 26.3854 19.9062 26.4244C19.8411 26.6588 19.75 26.8867 19.6328 27.108C19.5286 27.3294 19.444 27.5573 19.3789 27.7916C19.2617 27.8307 19.112 27.9023 18.9297 28.0065C18.7604 28.1237 18.6237 28.1823 18.5195 28.1823C18.4805 28.1823 18.4479 28.1627 18.4219 28.1237C18.3958 28.0846 18.3568 28.052 18.3047 28.026C18.2786 28.013 18.2396 28.013 18.1875 28.026C18.1484 28.039 18.1159 28.0455 18.0898 28.0455C18.0247 28.0455 17.9727 28.0195 17.9336 27.9674C17.9076 27.9153 17.8685 27.8763 17.8164 27.8502C17.7773 27.8632 17.7383 27.8763 17.6992 27.8893C17.6602 27.9023 17.6211 27.9088 17.582 27.9088C17.4909 27.9088 17.4388 27.8828 17.4258 27.8307C17.4128 27.7916 17.3737 27.7526 17.3086 27.7135C17.1523 27.6354 17.0612 27.5638 17.0352 27.4987C17.0091 27.4336 16.9701 27.388 16.918 27.3619C17.0091 27.0234 17.1328 26.7044 17.2891 26.4049C17.4453 26.0924 17.5951 25.7799 17.7383 25.4674C17.7773 25.3632 17.8229 25.2656 17.875 25.1744C17.9401 25.0833 17.9987 24.9856 18.0508 24.8815C18.0898 24.7903 18.1484 24.6731 18.2266 24.5299C18.3047 24.3867 18.3763 24.2369 18.4414 24.0807C18.5065 23.9244 18.5651 23.7812 18.6172 23.651C18.6693 23.5078 18.6953 23.3906 18.6953 23.2994C18.6953 23.1171 18.6432 22.9804 18.5391 22.8893C18.1615 22.5768 17.8034 22.2578 17.4648 21.9323C17.1393 21.6067 16.7943 21.2747 16.4297 20.9362C16.1953 20.7278 15.9414 20.513 15.668 20.2916C15.6159 20.2526 15.5768 20.194 15.5508 20.1158C15.5247 20.0377 15.4857 19.9661 15.4336 19.901C15.4076 19.8489 15.3685 19.8099 15.3164 19.7838C15.2643 19.7578 15.2253 19.7187 15.1992 19.6666C15.1602 19.6145 15.1341 19.5559 15.1211 19.4908C15.1081 19.4127 15.069 19.3541 15.0039 19.3151C14.9388 19.25 14.8607 19.2109 14.7695 19.1979C14.6784 19.1849 14.6003 19.1458 14.5352 19.0807C14.5742 19.0416 14.5938 19.0026 14.5938 18.9635C14.5807 18.9114 14.5742 18.8658 14.5742 18.8268C14.5742 18.7356 14.6133 18.6705 14.6914 18.6315C14.7695 18.5924 14.8086 18.5208 14.8086 18.4166C14.8607 18.3125 14.8997 18.2474 14.9258 18.2213C15.069 17.8698 15.2318 17.5312 15.4141 17.2057C15.5964 16.8802 15.7852 16.5546 15.9805 16.2291C16.0456 16.125 16.1042 16.0273 16.1562 15.9362C16.2214 15.832 16.2865 15.7278 16.3516 15.6237C16.3906 15.5325 16.4232 15.4544 16.4492 15.3893C16.4883 15.3112 16.5404 15.2395 16.6055 15.1744C16.7878 14.9661 16.9375 14.7708 17.0547 14.5885C17.1849 14.4062 17.2826 14.1849 17.3477 13.9244C17.3607 13.8593 17.3867 13.7682 17.4258 13.651C17.4648 13.5338 17.5104 13.4166 17.5625 13.2994C17.6276 13.1823 17.6927 13.0781 17.7578 12.9869C17.8229 12.8958 17.8945 12.8502 17.9727 12.8502C18.0378 12.8502 18.1289 12.8763 18.2461 12.9283C18.3763 12.9804 18.487 13.0195 18.5781 13.0455C18.6562 13.0716 18.7344 13.0976 18.8125 13.1237C18.9036 13.1367 18.9883 13.1432 19.0664 13.1432C19.1185 13.1432 19.1706 13.1302 19.2227 13.1041C19.2747 13.0651 19.3333 13.0455 19.3984 13.0455C19.5026 13.0455 19.6003 13.0651 19.6914 13.1041C19.7826 13.1302 19.8802 13.1497 19.9844 13.1627Z" fill="#EEEEEE"/>
</svg>
